<mxfile host="app.diagrams.net" modified="2023-12-10T17:42:48.951Z" agent="Mozilla/5.0 (Windows NT 10.0; Win64; x64; rv:120.0) Gecko/20100101 Firefox/120.0" etag="nJ20zNAXnQrVqlJW53d4" version="22.1.7" type="github">
  <diagram name="PÃ¡gina-1" id="BZ6eYjBMIoTcMoC20trz">
    <mxGraphModel dx="1593" dy="869" grid="1" gridSize="10" guides="1" tooltips="1" connect="1" arrows="1" fold="1" page="1" pageScale="1" pageWidth="827" pageHeight="1169" math="0" shadow="0">
      <root>
        <mxCell id="0" />
        <mxCell id="1" parent="0" />
        <mxCell id="AFoQP19V5urEX2H9Iucc-1" value="[XOR] Apartments List" style="swimlane;whiteSpace=wrap;html=1;fillColor=#FFFFFF;gradientColor=#FFFFFF;gradientDirection=south;align=left;rounded=0;" parent="1" vertex="1">
          <mxGeometry x="165" y="565.25" width="460" height="414.75" as="geometry" />
        </mxCell>
        <mxCell id="s0Bn349LhkQGqxj4xGBl-29" value="Client Apartments List" style="swimlane;whiteSpace=wrap;html=1;fillColor=#FFFFFF;gradientColor=#FFFFFF;gradientDirection=south;align=left;rounded=0;" parent="AFoQP19V5urEX2H9Iucc-1" vertex="1">
          <mxGeometry x="220" y="48.5" width="190" height="141.5" as="geometry" />
        </mxCell>
        <mxCell id="AFoQP19V5urEX2H9Iucc-2" value="&amp;lt;&amp;lt;List&amp;gt;&amp;gt;&lt;br&gt;&lt;br&gt;Apartments List" style="rounded=1;whiteSpace=wrap;html=1;fontSize=12;" parent="s0Bn349LhkQGqxj4xGBl-29" vertex="1">
          <mxGeometry x="40" y="37.5" width="110" height="75" as="geometry" />
        </mxCell>
        <mxCell id="AFoQP19V5urEX2H9Iucc-3" value="" style="ellipse;whiteSpace=wrap;html=1;aspect=fixed;rounded=0;fontSize=8;" parent="s0Bn349LhkQGqxj4xGBl-29" vertex="1">
          <mxGeometry x="140" y="65" width="20" height="20" as="geometry" />
        </mxCell>
        <mxCell id="s0Bn349LhkQGqxj4xGBl-33" value="Owner Apartments List" style="swimlane;whiteSpace=wrap;html=1;fillColor=#FFFFFF;gradientColor=#FFFFFF;gradientDirection=south;align=left;rounded=0;" parent="AFoQP19V5urEX2H9Iucc-1" vertex="1">
          <mxGeometry x="215" y="234.75" width="200" height="141.5" as="geometry" />
        </mxCell>
        <mxCell id="s0Bn349LhkQGqxj4xGBl-34" value="&amp;lt;&amp;lt;List&amp;gt;&amp;gt;&lt;br&gt;&lt;br&gt;Owner Apartments List" style="rounded=1;whiteSpace=wrap;html=1;fontSize=12;" parent="s0Bn349LhkQGqxj4xGBl-33" vertex="1">
          <mxGeometry x="40" y="40" width="110" height="75" as="geometry" />
        </mxCell>
        <mxCell id="s0Bn349LhkQGqxj4xGBl-37" value="" style="ellipse;whiteSpace=wrap;html=1;aspect=fixed;rounded=0;fontSize=8;" parent="s0Bn349LhkQGqxj4xGBl-33" vertex="1">
          <mxGeometry x="145" y="60.75" width="20" height="20" as="geometry" />
        </mxCell>
        <mxCell id="s0Bn349LhkQGqxj4xGBl-35" value="&lt;font style=&quot;font-size: 9px;&quot;&gt;&amp;lt;&amp;lt;ActivationExpression&amp;gt;&amp;gt;&lt;br&gt;role == &quot;CLIENT&quot;&lt;/font&gt;" style="shape=note;size=20;whiteSpace=wrap;html=1;rounded=0;fontSize=8;align=left;" parent="AFoQP19V5urEX2H9Iucc-1" vertex="1">
          <mxGeometry x="30" y="150" width="120" height="40" as="geometry" />
        </mxCell>
        <mxCell id="s0Bn349LhkQGqxj4xGBl-36" value="&lt;font style=&quot;font-size: 9px;&quot;&gt;&amp;lt;&amp;lt;ActivationExpression&amp;gt;&amp;gt;&lt;br&gt;role == &quot;OWNER&quot;&lt;/font&gt;" style="shape=note;size=20;whiteSpace=wrap;html=1;rounded=0;fontSize=8;align=left;" parent="AFoQP19V5urEX2H9Iucc-1" vertex="1">
          <mxGeometry x="40" y="336.25" width="120" height="40" as="geometry" />
        </mxCell>
        <mxCell id="s0Bn349LhkQGqxj4xGBl-49" value="" style="endArrow=classic;html=1;rounded=0;exitX=1;exitY=0.5;exitDx=0;exitDy=0;entryX=0;entryY=0.5;entryDx=0;entryDy=0;" parent="AFoQP19V5urEX2H9Iucc-1" source="s0Bn349LhkQGqxj4xGBl-52" target="s0Bn349LhkQGqxj4xGBl-29" edge="1">
          <mxGeometry width="50" height="50" relative="1" as="geometry">
            <mxPoint x="40" y="119.25" as="sourcePoint" />
            <mxPoint x="790" y="314.75" as="targetPoint" />
          </mxGeometry>
        </mxCell>
        <mxCell id="s0Bn349LhkQGqxj4xGBl-52" value="" style="ellipse;whiteSpace=wrap;html=1;aspect=fixed;fillColor=#000000;rounded=0;" parent="AFoQP19V5urEX2H9Iucc-1" vertex="1">
          <mxGeometry y="114.25" width="10" height="10" as="geometry" />
        </mxCell>
        <mxCell id="AFoQP19V5urEX2H9Iucc-102" value="" style="endArrow=none;dashed=1;html=1;rounded=0;fontSize=8;exitX=0.5;exitY=1;exitDx=0;exitDy=0;" parent="1" source="AFoQP19V5urEX2H9Iucc-123" edge="1">
          <mxGeometry width="50" height="50" relative="1" as="geometry">
            <mxPoint x="729" y="630" as="sourcePoint" />
            <mxPoint x="795" y="690" as="targetPoint" />
          </mxGeometry>
        </mxCell>
        <mxCell id="AFoQP19V5urEX2H9Iucc-104" value="&lt;font style=&quot;font-size: 11px;&quot;&gt;Book Apartment&lt;/font&gt;" style="shape=hexagon;perimeter=hexagonPerimeter2;whiteSpace=wrap;html=1;fixedSize=1;rounded=0;fontSize=8;" parent="1" vertex="1">
          <mxGeometry x="1935" y="665" width="100" height="70" as="geometry" />
        </mxCell>
        <mxCell id="AFoQP19V5urEX2H9Iucc-5" value="" style="endArrow=classic;html=1;rounded=0;exitX=1;exitY=0.5;exitDx=0;exitDy=0;" parent="1" source="AFoQP19V5urEX2H9Iucc-3" edge="1">
          <mxGeometry width="50" height="50" relative="1" as="geometry">
            <mxPoint x="964.0000000000166" y="888.3199999999999" as="sourcePoint" />
            <mxPoint x="945" y="689" as="targetPoint" />
          </mxGeometry>
        </mxCell>
        <mxCell id="s0Bn349LhkQGqxj4xGBl-42" value="&lt;font style=&quot;font-size: 12px;&quot;&gt;See Details&lt;/font&gt;" style="edgeLabel;html=1;align=center;verticalAlign=middle;resizable=0;points=[];" parent="AFoQP19V5urEX2H9Iucc-5" vertex="1" connectable="0">
          <mxGeometry x="-0.7492" relative="1" as="geometry">
            <mxPoint x="70" y="-10" as="offset" />
          </mxGeometry>
        </mxCell>
        <mxCell id="AFoQP19V5urEX2H9Iucc-123" value="&lt;font style=&quot;font-size: 9px;&quot;&gt;&amp;lt;&amp;lt;ParamBindingGroup&amp;gt;&amp;gt;&lt;br&gt;SelectedApartment -&amp;gt; Apartment&lt;br&gt;&lt;/font&gt;" style="shape=parallelogram;perimeter=parallelogramPerimeter;whiteSpace=wrap;html=1;fixedSize=1;rounded=0;fontSize=12;" parent="1" vertex="1">
          <mxGeometry x="708" y="480" width="172" height="45" as="geometry" />
        </mxCell>
        <mxCell id="AFoQP19V5urEX2H9Iucc-124" value="[XOR] Apartment Details" style="swimlane;whiteSpace=wrap;html=1;fillColor=#FFFFFF;gradientColor=#FFFFFF;gradientDirection=south;align=left;rounded=0;" parent="1" vertex="1">
          <mxGeometry x="945" y="540" width="820" height="560" as="geometry" />
        </mxCell>
        <mxCell id="AFoQP19V5urEX2H9Iucc-125" value="&lt;font style=&quot;font-size: 9px;&quot;&gt;&amp;lt;&amp;lt;ActivationExpression&amp;gt;&amp;gt;&lt;br&gt;role == &quot;CLIENT&quot;&lt;/font&gt;" style="shape=note;size=20;whiteSpace=wrap;html=1;rounded=0;fontSize=8;align=left;" parent="AFoQP19V5urEX2H9Iucc-124" vertex="1">
          <mxGeometry x="20" y="155" width="120" height="40" as="geometry" />
        </mxCell>
        <mxCell id="AFoQP19V5urEX2H9Iucc-126" value="Client Apartment Details" style="swimlane;whiteSpace=wrap;html=1;fillColor=#FFFFFF;gradientColor=#FFFFFF;gradientDirection=south;align=left;rounded=0;" parent="AFoQP19V5urEX2H9Iucc-124" vertex="1">
          <mxGeometry x="150" y="60" width="620" height="180" as="geometry" />
        </mxCell>
        <mxCell id="AFoQP19V5urEX2H9Iucc-129" value="&amp;lt;&amp;lt;Details&amp;gt;&amp;gt;&lt;br&gt;&lt;br&gt;Apartment Information" style="rounded=1;whiteSpace=wrap;html=1;fontSize=12;" parent="AFoQP19V5urEX2H9Iucc-126" vertex="1">
          <mxGeometry x="20" y="57.5" width="110" height="75" as="geometry" />
        </mxCell>
        <mxCell id="AFoQP19V5urEX2H9Iucc-178" value="&amp;lt;&amp;lt;Calendar&amp;gt;&amp;gt;&lt;br&gt;&lt;br&gt;Periods Calendar" style="rounded=1;whiteSpace=wrap;html=1;fontSize=12;" parent="AFoQP19V5urEX2H9Iucc-126" vertex="1">
          <mxGeometry x="310" y="57.5" width="110" height="75" as="geometry" />
        </mxCell>
        <mxCell id="AFoQP19V5urEX2H9Iucc-179" value="&amp;lt;&amp;lt;List&amp;gt;&amp;gt;&lt;br&gt;&lt;br&gt;Reviews List" style="rounded=1;whiteSpace=wrap;html=1;fontSize=12;" parent="AFoQP19V5urEX2H9Iucc-126" vertex="1">
          <mxGeometry x="166" y="57.5" width="110" height="75" as="geometry" />
        </mxCell>
        <mxCell id="s0Bn349LhkQGqxj4xGBl-55" value="&amp;lt;&amp;lt;Form&amp;gt;&amp;gt;&lt;br&gt;&lt;br&gt;Booking Information" style="rounded=1;whiteSpace=wrap;html=1;fontSize=12;" parent="AFoQP19V5urEX2H9Iucc-126" vertex="1">
          <mxGeometry x="460" y="57.5" width="110" height="75" as="geometry" />
        </mxCell>
        <mxCell id="s0Bn349LhkQGqxj4xGBl-60" value="" style="ellipse;whiteSpace=wrap;html=1;aspect=fixed;rounded=0;fontSize=8;" parent="AFoQP19V5urEX2H9Iucc-126" vertex="1">
          <mxGeometry x="560" y="90" width="20" height="20" as="geometry" />
        </mxCell>
        <mxCell id="AFoQP19V5urEX2H9Iucc-141" value="Onwer Apartment Details" style="swimlane;whiteSpace=wrap;html=1;fillColor=#FFFFFF;gradientColor=#FFFFFF;gradientDirection=south;align=left;rounded=0;" parent="AFoQP19V5urEX2H9Iucc-124" vertex="1">
          <mxGeometry x="150" y="320" width="470" height="180" as="geometry" />
        </mxCell>
        <mxCell id="s0Bn349LhkQGqxj4xGBl-56" value="&amp;lt;&amp;lt;Details&amp;gt;&amp;gt;&lt;br&gt;&lt;br&gt;Apartment Information" style="rounded=1;whiteSpace=wrap;html=1;fontSize=12;" parent="AFoQP19V5urEX2H9Iucc-141" vertex="1">
          <mxGeometry x="30" y="60" width="110" height="75" as="geometry" />
        </mxCell>
        <mxCell id="s0Bn349LhkQGqxj4xGBl-58" value="&amp;lt;&amp;lt;List&amp;gt;&amp;gt;&lt;br&gt;&lt;br&gt;Reviews List" style="rounded=1;whiteSpace=wrap;html=1;fontSize=12;" parent="AFoQP19V5urEX2H9Iucc-141" vertex="1">
          <mxGeometry x="180" y="60" width="110" height="75" as="geometry" />
        </mxCell>
        <mxCell id="s0Bn349LhkQGqxj4xGBl-57" value="&amp;lt;&amp;lt;Calendar&amp;gt;&amp;gt;&lt;br&gt;&lt;br&gt;Period Information" style="rounded=1;whiteSpace=wrap;html=1;fontSize=12;" parent="AFoQP19V5urEX2H9Iucc-141" vertex="1">
          <mxGeometry x="330" y="60" width="110" height="75" as="geometry" />
        </mxCell>
        <mxCell id="s0Bn349LhkQGqxj4xGBl-78" value="" style="ellipse;whiteSpace=wrap;html=1;aspect=fixed;rounded=0;fontSize=8;" parent="AFoQP19V5urEX2H9Iucc-141" vertex="1">
          <mxGeometry x="430" y="87.5" width="20" height="20" as="geometry" />
        </mxCell>
        <mxCell id="AFoQP19V5urEX2H9Iucc-150" value="&lt;font style=&quot;font-size: 9px;&quot;&gt;&amp;lt;&amp;lt;ActivationExpression&amp;gt;&amp;gt;&lt;br&gt;role == &quot;OWNER&quot;&lt;/font&gt;" style="shape=note;size=20;whiteSpace=wrap;html=1;rounded=0;fontSize=8;align=left;" parent="AFoQP19V5urEX2H9Iucc-124" vertex="1">
          <mxGeometry x="20" y="470" width="120" height="40" as="geometry" />
        </mxCell>
        <mxCell id="AFoQP19V5urEX2H9Iucc-153" value="" style="endArrow=none;dashed=1;html=1;rounded=0;fontSize=8;exitX=0;exitY=0;exitDx=50;exitDy=0;exitPerimeter=0;" parent="AFoQP19V5urEX2H9Iucc-124" source="AFoQP19V5urEX2H9Iucc-150" edge="1">
          <mxGeometry width="50" height="50" relative="1" as="geometry">
            <mxPoint x="-70" y="340" as="sourcePoint" />
            <mxPoint x="70" y="420" as="targetPoint" />
          </mxGeometry>
        </mxCell>
        <mxCell id="s0Bn349LhkQGqxj4xGBl-1" value="" style="ellipse;whiteSpace=wrap;html=1;aspect=fixed;fillColor=#000000;rounded=0;" parent="AFoQP19V5urEX2H9Iucc-124" vertex="1">
          <mxGeometry x="-5" y="100" width="10" height="10" as="geometry" />
        </mxCell>
        <mxCell id="AFoQP19V5urEX2H9Iucc-176" value="" style="endArrow=classic;html=1;rounded=0;entryX=0;entryY=0.25;entryDx=0;entryDy=0;exitX=1;exitY=0.5;exitDx=0;exitDy=0;" parent="AFoQP19V5urEX2H9Iucc-124" source="s0Bn349LhkQGqxj4xGBl-1" target="AFoQP19V5urEX2H9Iucc-126" edge="1">
          <mxGeometry width="50" height="50" relative="1" as="geometry">
            <mxPoint y="108" as="sourcePoint" />
            <mxPoint x="190" y="315" as="targetPoint" />
          </mxGeometry>
        </mxCell>
        <mxCell id="AFoQP19V5urEX2H9Iucc-151" value="" style="ellipse;whiteSpace=wrap;html=1;aspect=fixed;fillColor=#000000;rounded=0;" parent="AFoQP19V5urEX2H9Iucc-124" vertex="1">
          <mxGeometry x="-5" y="405" width="10" height="10" as="geometry" />
        </mxCell>
        <mxCell id="AFoQP19V5urEX2H9Iucc-152" value="" style="endArrow=classic;html=1;rounded=0;exitX=1;exitY=0.5;exitDx=0;exitDy=0;entryX=0;entryY=0.5;entryDx=0;entryDy=0;" parent="AFoQP19V5urEX2H9Iucc-124" source="AFoQP19V5urEX2H9Iucc-151" target="AFoQP19V5urEX2H9Iucc-141" edge="1">
          <mxGeometry width="50" height="50" relative="1" as="geometry">
            <mxPoint x="7.5" y="410" as="sourcePoint" />
            <mxPoint x="130" y="400" as="targetPoint" />
          </mxGeometry>
        </mxCell>
        <mxCell id="AFoQP19V5urEX2H9Iucc-177" value="" style="endArrow=none;dashed=1;html=1;rounded=0;fontSize=8;exitX=0;exitY=0;exitDx=50;exitDy=0;exitPerimeter=0;" parent="1" source="AFoQP19V5urEX2H9Iucc-125" edge="1">
          <mxGeometry width="50" height="50" relative="1" as="geometry">
            <mxPoint x="1030" y="705" as="sourcePoint" />
            <mxPoint x="1015" y="650" as="targetPoint" />
          </mxGeometry>
        </mxCell>
        <mxCell id="AFoQP19V5urEX2H9Iucc-180" value="&lt;font style=&quot;font-size: 9px;&quot;&gt;&amp;lt;&amp;lt;ParamBindingGroup&amp;gt;&amp;gt;&lt;br&gt;BookingDetailsInfo-&amp;gt; Booking&lt;br&gt;State -&amp;gt; Under_Consideration&lt;br&gt;&lt;/font&gt;" style="shape=parallelogram;perimeter=parallelogramPerimeter;whiteSpace=wrap;html=1;fixedSize=1;rounded=0;fontSize=12;" parent="1" vertex="1">
          <mxGeometry x="1795" y="525" width="160" height="60" as="geometry" />
        </mxCell>
        <mxCell id="AFoQP19V5urEX2H9Iucc-181" value="" style="endArrow=none;dashed=1;html=1;rounded=0;fontSize=8;exitX=0.5;exitY=1;exitDx=0;exitDy=0;" parent="1" source="AFoQP19V5urEX2H9Iucc-180" edge="1">
          <mxGeometry width="50" height="50" relative="1" as="geometry">
            <mxPoint x="2085" y="1133" as="sourcePoint" />
            <mxPoint x="1875" y="700" as="targetPoint" />
          </mxGeometry>
        </mxCell>
        <mxCell id="s0Bn349LhkQGqxj4xGBl-12" value="Login Page" style="swimlane;align=left;fontSize=12;rounded=0;" parent="1" vertex="1">
          <mxGeometry x="160" y="95" width="460" height="200" as="geometry" />
        </mxCell>
        <mxCell id="s0Bn349LhkQGqxj4xGBl-13" value="&amp;lt;&amp;lt;Form&amp;gt;&amp;gt;&lt;br&gt;&lt;br&gt;Login Information" style="rounded=1;whiteSpace=wrap;html=1;fontSize=12;" parent="s0Bn349LhkQGqxj4xGBl-12" vertex="1">
          <mxGeometry x="20" y="45" width="90" height="70" as="geometry" />
        </mxCell>
        <mxCell id="s0Bn349LhkQGqxj4xGBl-14" value="&lt;font style=&quot;font-size: 9px;&quot;&gt;&amp;lt;&amp;lt;ParamBindingGroup&amp;gt;&amp;gt;&lt;br&gt;Username-&amp;gt; Username&lt;br&gt;Password -&amp;gt; Password&lt;br&gt;&lt;/font&gt;" style="shape=parallelogram;perimeter=parallelogramPerimeter;whiteSpace=wrap;html=1;fixedSize=1;rounded=0;fontSize=12;" parent="s0Bn349LhkQGqxj4xGBl-12" vertex="1">
          <mxGeometry x="110" y="130" width="140" height="40" as="geometry" />
        </mxCell>
        <mxCell id="s0Bn349LhkQGqxj4xGBl-15" value="" style="ellipse;whiteSpace=wrap;html=1;aspect=fixed;rounded=0;fontSize=8;" parent="s0Bn349LhkQGqxj4xGBl-12" vertex="1">
          <mxGeometry x="100" y="70" width="20" height="20" as="geometry" />
        </mxCell>
        <mxCell id="s0Bn349LhkQGqxj4xGBl-16" value="" style="html=1;shadow=0;dashed=0;align=center;verticalAlign=middle;shape=mxgraph.arrows2.bendArrow;dy=1.61;dx=4.65;notch=0;arrowHead=9.83;rounded=0;fontSize=8;rotation=-180;" parent="s0Bn349LhkQGqxj4xGBl-12" vertex="1">
          <mxGeometry x="103" y="71" width="10" height="19" as="geometry" />
        </mxCell>
        <mxCell id="s0Bn349LhkQGqxj4xGBl-17" value="&lt;div&gt;&lt;font style=&quot;font-size: 9px;&quot;&gt;&amp;lt;&amp;lt;ParamBindingGroup&amp;gt;&amp;gt;&lt;/font&gt;&lt;/div&gt;&lt;div&gt;&lt;font style=&quot;font-size: 9px;&quot;&gt;Username -&amp;gt; Username&lt;br&gt;&lt;/font&gt;&lt;/div&gt;&lt;font style=&quot;font-size: 9px;&quot;&gt;Role -&amp;gt; Role&lt;br&gt;Token -&amp;gt; Token&lt;br&gt;&lt;/font&gt;" style="shape=parallelogram;perimeter=parallelogramPerimeter;whiteSpace=wrap;html=1;fixedSize=1;rounded=0;fontSize=12;" parent="s0Bn349LhkQGqxj4xGBl-12" vertex="1">
          <mxGeometry x="290" y="120" width="140" height="60" as="geometry" />
        </mxCell>
        <mxCell id="s0Bn349LhkQGqxj4xGBl-18" value="&lt;font style=&quot;font-size: 11px;&quot;&gt;Login&lt;/font&gt;" style="shape=hexagon;perimeter=hexagonPerimeter2;whiteSpace=wrap;html=1;fixedSize=1;rounded=0;fontSize=8;" parent="s0Bn349LhkQGqxj4xGBl-12" vertex="1">
          <mxGeometry x="240" y="50" width="70" height="60" as="geometry" />
        </mxCell>
        <mxCell id="s0Bn349LhkQGqxj4xGBl-19" value="" style="endArrow=classic;html=1;rounded=0;fontSize=8;exitX=1;exitY=0.5;exitDx=0;exitDy=0;" parent="s0Bn349LhkQGqxj4xGBl-12" source="s0Bn349LhkQGqxj4xGBl-15" edge="1">
          <mxGeometry width="50" height="50" relative="1" as="geometry">
            <mxPoint x="275" y="235" as="sourcePoint" />
            <mxPoint x="240" y="80" as="targetPoint" />
          </mxGeometry>
        </mxCell>
        <mxCell id="s0Bn349LhkQGqxj4xGBl-20" value="" style="endArrow=none;dashed=1;html=1;rounded=0;fontSize=8;exitX=0.5;exitY=0;exitDx=0;exitDy=0;" parent="s0Bn349LhkQGqxj4xGBl-12" source="s0Bn349LhkQGqxj4xGBl-17" edge="1">
          <mxGeometry width="50" height="50" relative="1" as="geometry">
            <mxPoint x="387.5" y="159" as="sourcePoint" />
            <mxPoint x="360" y="80" as="targetPoint" />
          </mxGeometry>
        </mxCell>
        <mxCell id="s0Bn349LhkQGqxj4xGBl-22" value="" style="endArrow=none;dashed=1;html=1;rounded=0;fontSize=8;exitX=0.5;exitY=0;exitDx=0;exitDy=0;" parent="s0Bn349LhkQGqxj4xGBl-12" edge="1">
          <mxGeometry width="50" height="50" relative="1" as="geometry">
            <mxPoint x="179.66" y="130" as="sourcePoint" />
            <mxPoint x="179.66" y="81" as="targetPoint" />
          </mxGeometry>
        </mxCell>
        <mxCell id="s0Bn349LhkQGqxj4xGBl-24" value="" style="ellipse;whiteSpace=wrap;html=1;aspect=fixed;rounded=0;fontSize=8;" parent="s0Bn349LhkQGqxj4xGBl-12" vertex="1">
          <mxGeometry x="300" y="70" width="20" height="20" as="geometry" />
        </mxCell>
        <mxCell id="s0Bn349LhkQGqxj4xGBl-25" value="" style="endArrow=classic;html=1;rounded=0;fontSize=8;exitX=1;exitY=0.5;exitDx=0;exitDy=0;" parent="1" source="s0Bn349LhkQGqxj4xGBl-24" edge="1">
          <mxGeometry width="50" height="50" relative="1" as="geometry">
            <mxPoint x="650" y="423.65999999999997" as="sourcePoint" />
            <mxPoint x="730" y="175" as="targetPoint" />
          </mxGeometry>
        </mxCell>
        <mxCell id="s0Bn349LhkQGqxj4xGBl-26" value="" style="endArrow=classic;html=1;rounded=0;fontSize=8;exitX=0;exitY=0.5;exitDx=0;exitDy=0;entryX=0.25;entryY=1;entryDx=0;entryDy=0;" parent="1" source="s0Bn349LhkQGqxj4xGBl-27" target="s0Bn349LhkQGqxj4xGBl-12" edge="1">
          <mxGeometry width="50" height="50" relative="1" as="geometry">
            <mxPoint x="410" y="355" as="sourcePoint" />
            <mxPoint x="690" y="355" as="targetPoint" />
            <Array as="points">
              <mxPoint x="275" y="350" />
            </Array>
          </mxGeometry>
        </mxCell>
        <mxCell id="s0Bn349LhkQGqxj4xGBl-28" value="" style="endArrow=classic;html=1;rounded=0;fontSize=8;exitX=1;exitY=0.5;exitDx=0;exitDy=0;entryX=0;entryY=0.5;entryDx=0;entryDy=0;" parent="1" source="s0Bn349LhkQGqxj4xGBl-60" target="AFoQP19V5urEX2H9Iucc-104" edge="1">
          <mxGeometry width="50" height="50" relative="1" as="geometry">
            <mxPoint x="2140" y="930" as="sourcePoint" />
            <mxPoint x="1915" y="700" as="targetPoint" />
          </mxGeometry>
        </mxCell>
        <mxCell id="s0Bn349LhkQGqxj4xGBl-63" value="&lt;font style=&quot;font-size: 12px;&quot;&gt;Book&lt;/font&gt;" style="edgeLabel;html=1;align=center;verticalAlign=middle;resizable=0;points=[];" parent="s0Bn349LhkQGqxj4xGBl-28" vertex="1" connectable="0">
          <mxGeometry x="-0.5779" y="1" relative="1" as="geometry">
            <mxPoint x="-43" y="-9" as="offset" />
          </mxGeometry>
        </mxCell>
        <mxCell id="s0Bn349LhkQGqxj4xGBl-38" value="" style="endArrow=classic;html=1;rounded=0;exitX=1;exitY=0.5;exitDx=0;exitDy=0;" parent="1" source="s0Bn349LhkQGqxj4xGBl-37" edge="1">
          <mxGeometry width="50" height="50" relative="1" as="geometry">
            <mxPoint x="565" y="853" as="sourcePoint" />
            <mxPoint x="945" y="870" as="targetPoint" />
          </mxGeometry>
        </mxCell>
        <mxCell id="s0Bn349LhkQGqxj4xGBl-39" value="&lt;font style=&quot;font-size: 11px;&quot;&gt;Logout&lt;/font&gt;" style="shape=hexagon;perimeter=hexagonPerimeter2;whiteSpace=wrap;html=1;fixedSize=1;rounded=0;fontSize=8;" parent="1" vertex="1">
          <mxGeometry x="410" y="320" width="70" height="60" as="geometry" />
        </mxCell>
        <mxCell id="s0Bn349LhkQGqxj4xGBl-41" value="" style="endArrow=classic;html=1;rounded=0;fontSize=8;entryX=1;entryY=0.5;entryDx=0;entryDy=0;" parent="1" target="s0Bn349LhkQGqxj4xGBl-39" edge="1">
          <mxGeometry width="50" height="50" relative="1" as="geometry">
            <mxPoint x="730" y="350" as="sourcePoint" />
            <mxPoint x="410" y="185" as="targetPoint" />
          </mxGeometry>
        </mxCell>
        <mxCell id="s0Bn349LhkQGqxj4xGBl-47" value="&lt;font style=&quot;font-size: 12px;&quot;&gt;See Details&lt;/font&gt;" style="edgeLabel;html=1;align=center;verticalAlign=middle;resizable=0;points=[];" parent="1" vertex="1" connectable="0">
          <mxGeometry x="664.9953289761745" y="859.9957833061017" as="geometry" />
        </mxCell>
        <mxCell id="s0Bn349LhkQGqxj4xGBl-50" value="" style="ellipse;whiteSpace=wrap;html=1;aspect=fixed;fillColor=#000000;rounded=0;" parent="1" vertex="1">
          <mxGeometry x="160" y="865.75" width="10" height="10" as="geometry" />
        </mxCell>
        <mxCell id="s0Bn349LhkQGqxj4xGBl-51" value="" style="endArrow=classic;html=1;rounded=0;exitX=1;exitY=0.5;exitDx=0;exitDy=0;entryX=0;entryY=0.5;entryDx=0;entryDy=0;" parent="1" source="s0Bn349LhkQGqxj4xGBl-50" target="s0Bn349LhkQGqxj4xGBl-33" edge="1">
          <mxGeometry width="50" height="50" relative="1" as="geometry">
            <mxPoint x="185" y="694.25" as="sourcePoint" />
            <mxPoint x="395" y="694.25" as="targetPoint" />
          </mxGeometry>
        </mxCell>
        <mxCell id="s0Bn349LhkQGqxj4xGBl-53" value="" style="endArrow=none;dashed=1;html=1;rounded=0;fontSize=8;entryX=0;entryY=0;entryDx=50;entryDy=0;entryPerimeter=0;" parent="1" target="s0Bn349LhkQGqxj4xGBl-35" edge="1">
          <mxGeometry width="50" height="50" relative="1" as="geometry">
            <mxPoint x="245" y="690" as="sourcePoint" />
            <mxPoint x="1025" y="660" as="targetPoint" />
          </mxGeometry>
        </mxCell>
        <mxCell id="s0Bn349LhkQGqxj4xGBl-54" value="" style="endArrow=none;dashed=1;html=1;rounded=0;fontSize=8;entryX=0;entryY=0;entryDx=50.00000000000001;entryDy=0;entryPerimeter=0;" parent="1" target="s0Bn349LhkQGqxj4xGBl-36" edge="1">
          <mxGeometry width="50" height="50" relative="1" as="geometry">
            <mxPoint x="255" y="870" as="sourcePoint" />
            <mxPoint x="255" y="725" as="targetPoint" />
          </mxGeometry>
        </mxCell>
        <mxCell id="s0Bn349LhkQGqxj4xGBl-64" value="" style="ellipse;whiteSpace=wrap;html=1;aspect=fixed;rounded=0;fontSize=8;" parent="1" vertex="1">
          <mxGeometry x="2035" y="690" width="20" height="20" as="geometry" />
        </mxCell>
        <mxCell id="s0Bn349LhkQGqxj4xGBl-66" value="" style="endArrow=classic;html=1;rounded=0;exitX=1;exitY=0.5;exitDx=0;exitDy=0;entryX=0;entryY=0.5;entryDx=0;entryDy=0;" parent="1" source="s0Bn349LhkQGqxj4xGBl-64" target="s0Bn349LhkQGqxj4xGBl-67" edge="1">
          <mxGeometry width="50" height="50" relative="1" as="geometry">
            <mxPoint x="2205" y="1350" as="sourcePoint" />
            <mxPoint x="2105" y="700" as="targetPoint" />
          </mxGeometry>
        </mxCell>
        <mxCell id="s0Bn349LhkQGqxj4xGBl-67" value="Confirmation" style="swimlane;whiteSpace=wrap;html=1;fillColor=#FFFFFF;gradientColor=#FFFFFF;gradientDirection=south;align=left;rounded=0;" parent="1" vertex="1">
          <mxGeometry x="2115" y="620" width="174.75" height="160" as="geometry" />
        </mxCell>
        <mxCell id="s0Bn349LhkQGqxj4xGBl-70" value="&amp;lt;&amp;lt;Details&amp;gt;&amp;gt;&lt;br&gt;Confirmation Message" style="rounded=1;whiteSpace=wrap;html=1;fontSize=12;" parent="s0Bn349LhkQGqxj4xGBl-67" vertex="1">
          <mxGeometry x="34.87" y="55" width="105" height="80" as="geometry" />
        </mxCell>
        <mxCell id="s0Bn349LhkQGqxj4xGBl-80" value="" style="endArrow=classic;html=1;rounded=0;fontSize=8;exitX=1;exitY=0.5;exitDx=0;exitDy=0;entryX=0;entryY=0.5;entryDx=0;entryDy=0;" parent="1" source="s0Bn349LhkQGqxj4xGBl-78" target="s0Bn349LhkQGqxj4xGBl-82" edge="1">
          <mxGeometry width="50" height="50" relative="1" as="geometry">
            <mxPoint x="1685" y="710" as="sourcePoint" />
            <mxPoint x="1895" y="958" as="targetPoint" />
          </mxGeometry>
        </mxCell>
        <mxCell id="s0Bn349LhkQGqxj4xGBl-81" value="&lt;font style=&quot;font-size: 12px;&quot;&gt;Create Period&lt;/font&gt;" style="edgeLabel;html=1;align=center;verticalAlign=middle;resizable=0;points=[];" parent="s0Bn349LhkQGqxj4xGBl-80" vertex="1" connectable="0">
          <mxGeometry x="-0.5779" y="1" relative="1" as="geometry">
            <mxPoint x="-9" y="-9" as="offset" />
          </mxGeometry>
        </mxCell>
        <mxCell id="s0Bn349LhkQGqxj4xGBl-82" value="&lt;font style=&quot;font-size: 11px;&quot;&gt;Create Period&lt;/font&gt;" style="shape=hexagon;perimeter=hexagonPerimeter2;whiteSpace=wrap;html=1;fixedSize=1;rounded=0;fontSize=8;" parent="1" vertex="1">
          <mxGeometry x="1935" y="922.5" width="100" height="70" as="geometry" />
        </mxCell>
        <mxCell id="s0Bn349LhkQGqxj4xGBl-83" value="&lt;font style=&quot;font-size: 9px;&quot;&gt;&amp;lt;&amp;lt;ParamBindingGroup&amp;gt;&amp;gt;&lt;br&gt;Period-&amp;gt; Period&lt;br&gt;&lt;/font&gt;" style="shape=parallelogram;perimeter=parallelogramPerimeter;whiteSpace=wrap;html=1;fixedSize=1;rounded=0;fontSize=12;" parent="1" vertex="1">
          <mxGeometry x="1815" y="815.75" width="160" height="60" as="geometry" />
        </mxCell>
        <mxCell id="s0Bn349LhkQGqxj4xGBl-84" value="" style="endArrow=none;dashed=1;html=1;rounded=0;fontSize=8;" parent="1" edge="1">
          <mxGeometry width="50" height="50" relative="1" as="geometry">
            <mxPoint x="1885" y="880" as="sourcePoint" />
            <mxPoint x="1885" y="960" as="targetPoint" />
          </mxGeometry>
        </mxCell>
        <mxCell id="s0Bn349LhkQGqxj4xGBl-85" value="" style="ellipse;whiteSpace=wrap;html=1;aspect=fixed;rounded=0;fontSize=8;" parent="1" vertex="1">
          <mxGeometry x="2035" y="947.5" width="20" height="20" as="geometry" />
        </mxCell>
        <mxCell id="s0Bn349LhkQGqxj4xGBl-86" value="" style="endArrow=classic;html=1;rounded=0;exitX=1;exitY=0.5;exitDx=0;exitDy=0;" parent="1" source="s0Bn349LhkQGqxj4xGBl-85" edge="1">
          <mxGeometry width="50" height="50" relative="1" as="geometry">
            <mxPoint x="2205" y="1607.5" as="sourcePoint" />
            <mxPoint x="2115" y="958" as="targetPoint" />
          </mxGeometry>
        </mxCell>
        <mxCell id="s0Bn349LhkQGqxj4xGBl-87" value="Confirmation" style="swimlane;whiteSpace=wrap;html=1;fillColor=#FFFFFF;gradientColor=#FFFFFF;gradientDirection=south;align=left;rounded=0;" parent="1" vertex="1">
          <mxGeometry x="2115" y="877.5" width="174.75" height="172.5" as="geometry" />
        </mxCell>
        <mxCell id="s0Bn349LhkQGqxj4xGBl-88" value="&amp;lt;&amp;lt;Details&amp;gt;&amp;gt;&lt;br&gt;Confirmation Message" style="rounded=1;whiteSpace=wrap;html=1;fontSize=12;" parent="s0Bn349LhkQGqxj4xGBl-87" vertex="1">
          <mxGeometry x="34.87" y="55" width="105" height="80" as="geometry" />
        </mxCell>
        <mxCell id="s0Bn349LhkQGqxj4xGBl-89" value="" style="ellipse;whiteSpace=wrap;html=1;aspect=fixed;rounded=0;fontSize=8;" parent="1" vertex="1">
          <mxGeometry x="2105" y="750" width="20" height="20" as="geometry" />
        </mxCell>
        <mxCell id="s0Bn349LhkQGqxj4xGBl-90" value="" style="endArrow=classic;html=1;rounded=0;exitX=0;exitY=0.5;exitDx=0;exitDy=0;" parent="1" source="s0Bn349LhkQGqxj4xGBl-89" edge="1">
          <mxGeometry width="50" height="50" relative="1" as="geometry">
            <mxPoint x="2175" y="1449.5" as="sourcePoint" />
            <mxPoint x="630" y="800" as="targetPoint" />
            <Array as="points">
              <mxPoint x="1910" y="760" />
              <mxPoint x="1810" y="760" />
              <mxPoint x="1810" y="800" />
            </Array>
          </mxGeometry>
        </mxCell>
        <mxCell id="s0Bn349LhkQGqxj4xGBl-91" value="" style="endArrow=classic;html=1;rounded=0;exitX=0;exitY=0.5;exitDx=0;exitDy=0;entryX=0.75;entryY=1;entryDx=0;entryDy=0;" parent="1" source="s0Bn349LhkQGqxj4xGBl-92" edge="1" target="AFoQP19V5urEX2H9Iucc-1">
          <mxGeometry width="50" height="50" relative="1" as="geometry">
            <mxPoint x="2055" y="1025" as="sourcePoint" />
            <mxPoint x="520" y="1140" as="targetPoint" />
            <Array as="points">
              <mxPoint x="1880" y="1025" />
              <mxPoint x="1880" y="1140" />
              <mxPoint x="510" y="1140" />
            </Array>
          </mxGeometry>
        </mxCell>
        <mxCell id="s0Bn349LhkQGqxj4xGBl-92" value="" style="ellipse;whiteSpace=wrap;html=1;aspect=fixed;rounded=0;fontSize=8;" parent="1" vertex="1">
          <mxGeometry x="2105" y="1015" width="20" height="20" as="geometry" />
        </mxCell>
        <mxCell id="s0Bn349LhkQGqxj4xGBl-106" value="[H] Home Page" style="swimlane;whiteSpace=wrap;html=1;align=left;rounded=0;" parent="1" vertex="1">
          <mxGeometry x="730" y="80" width="230" height="300" as="geometry" />
        </mxCell>
        <mxCell id="s0Bn349LhkQGqxj4xGBl-107" value="Apartments List" style="swimlane;fontSize=12;align=left;startSize=20;rounded=0;fillStyle=auto;" parent="s0Bn349LhkQGqxj4xGBl-106" vertex="1">
          <mxGeometry x="45" y="70" width="140" height="70" as="geometry" />
        </mxCell>
        <mxCell id="s0Bn349LhkQGqxj4xGBl-108" value="Apartments List Page" style="rounded=0;whiteSpace=wrap;html=1;fillStyle=auto;fillColor=#FFFFFF;" parent="s0Bn349LhkQGqxj4xGBl-107" vertex="1">
          <mxGeometry y="20" width="140" height="50" as="geometry" />
        </mxCell>
        <mxCell id="s0Bn349LhkQGqxj4xGBl-112" value="Bookings List" style="swimlane;fontSize=12;align=left;startSize=20;rounded=0;fillStyle=auto;" parent="s0Bn349LhkQGqxj4xGBl-106" vertex="1">
          <mxGeometry x="45" y="190" width="140" height="70" as="geometry" />
        </mxCell>
        <mxCell id="s0Bn349LhkQGqxj4xGBl-113" value="Bookings List Page" style="rounded=0;whiteSpace=wrap;html=1;fillStyle=auto;fillColor=#FFFFFF;" parent="s0Bn349LhkQGqxj4xGBl-112" vertex="1">
          <mxGeometry y="20" width="140" height="50" as="geometry" />
        </mxCell>
        <mxCell id="s0Bn349LhkQGqxj4xGBl-148" value="[XOR] Booking Details" style="swimlane;whiteSpace=wrap;html=1;fillColor=#FFFFFF;gradientColor=#FFFFFF;gradientDirection=south;align=left;rounded=0;" parent="1" vertex="1">
          <mxGeometry x="955" y="1210" width="850" height="750" as="geometry" />
        </mxCell>
        <mxCell id="s0Bn349LhkQGqxj4xGBl-149" value="&lt;font style=&quot;font-size: 9px;&quot;&gt;&amp;lt;&amp;lt;ActivationExpression&amp;gt;&amp;gt;&lt;br&gt;role == &quot;CLIENT&quot;&lt;/font&gt;" style="shape=note;size=20;whiteSpace=wrap;html=1;rounded=0;fontSize=8;align=left;" parent="s0Bn349LhkQGqxj4xGBl-148" vertex="1">
          <mxGeometry x="20" y="150" width="120" height="40" as="geometry" />
        </mxCell>
        <mxCell id="s0Bn349LhkQGqxj4xGBl-150" value="Client Booking Details" style="swimlane;whiteSpace=wrap;html=1;fillColor=#FFFFFF;gradientColor=#FFFFFF;gradientDirection=south;align=left;rounded=0;" parent="s0Bn349LhkQGqxj4xGBl-148" vertex="1">
          <mxGeometry x="150" y="60" width="640" height="210" as="geometry" />
        </mxCell>
        <mxCell id="tFA0DNux-SHyUiWXGhg9-10" value="&amp;lt;&amp;lt;Details&amp;gt;&amp;gt;&lt;br&gt;&lt;br&gt;Booking Information" style="rounded=1;whiteSpace=wrap;html=1;fontSize=12;" parent="s0Bn349LhkQGqxj4xGBl-150" vertex="1">
          <mxGeometry x="40" y="60" width="120" height="80" as="geometry" />
        </mxCell>
        <mxCell id="gD3kdaA8dIA9FpD4URgZ-2" value="&amp;lt;&amp;lt;Details&amp;gt;&amp;gt;&lt;br&gt;&lt;br&gt;Booking Review" style="rounded=1;whiteSpace=wrap;html=1;fontSize=12;" parent="s0Bn349LhkQGqxj4xGBl-150" vertex="1">
          <mxGeometry x="250" y="62.5" width="110" height="75" as="geometry" />
        </mxCell>
        <mxCell id="gD3kdaA8dIA9FpD4URgZ-3" value="&amp;lt;&amp;lt;Details&amp;gt;&amp;gt;&lt;br&gt;&lt;br&gt;Booking State" style="rounded=1;whiteSpace=wrap;html=1;fontSize=12;" parent="s0Bn349LhkQGqxj4xGBl-150" vertex="1">
          <mxGeometry x="460" y="62.5" width="110" height="75" as="geometry" />
        </mxCell>
        <mxCell id="Qd9eh4tPJ-e6mK_Yuv8Q-5" value="" style="ellipse;whiteSpace=wrap;html=1;aspect=fixed;rounded=0;fontSize=8;" parent="s0Bn349LhkQGqxj4xGBl-150" vertex="1">
          <mxGeometry x="510" y="124" width="20" height="20" as="geometry" />
        </mxCell>
        <mxCell id="tFA0DNux-SHyUiWXGhg9-14" value="" style="ellipse;whiteSpace=wrap;html=1;aspect=fixed;rounded=0;fontSize=8;" parent="s0Bn349LhkQGqxj4xGBl-150" vertex="1">
          <mxGeometry x="560" y="90" width="20" height="20" as="geometry" />
        </mxCell>
        <mxCell id="s0Bn349LhkQGqxj4xGBl-156" value="Onwer Booking Details" style="swimlane;whiteSpace=wrap;html=1;fillColor=#FFFFFF;gradientColor=#FFFFFF;gradientDirection=south;align=left;rounded=0;" parent="s0Bn349LhkQGqxj4xGBl-148" vertex="1">
          <mxGeometry x="177.5" y="510" width="612.5" height="180" as="geometry" />
        </mxCell>
        <mxCell id="Qd9eh4tPJ-e6mK_Yuv8Q-18" value="&amp;lt;&amp;lt;Details&amp;gt;&amp;gt;&lt;br&gt;&lt;br&gt;Booking Information" style="rounded=1;whiteSpace=wrap;html=1;fontSize=12;" parent="s0Bn349LhkQGqxj4xGBl-156" vertex="1">
          <mxGeometry x="31.25" y="55" width="120" height="80" as="geometry" />
        </mxCell>
        <mxCell id="gD3kdaA8dIA9FpD4URgZ-6" value="&amp;lt;&amp;lt;Details&amp;gt;&amp;gt;&lt;br&gt;&lt;br&gt;Booking Review" style="rounded=1;whiteSpace=wrap;html=1;fontSize=12;" parent="s0Bn349LhkQGqxj4xGBl-156" vertex="1">
          <mxGeometry x="242.5" y="57.5" width="110" height="75" as="geometry" />
        </mxCell>
        <mxCell id="gD3kdaA8dIA9FpD4URgZ-7" value="&amp;lt;&amp;lt;Details&amp;gt;&amp;gt;&lt;br&gt;&lt;br&gt;Booking State" style="rounded=1;whiteSpace=wrap;html=1;fontSize=12;" parent="s0Bn349LhkQGqxj4xGBl-156" vertex="1">
          <mxGeometry x="432.5" y="57.5" width="110" height="75" as="geometry" />
        </mxCell>
        <mxCell id="jyt33oUXzpSbrjprYRM3-14" value="" style="ellipse;whiteSpace=wrap;html=1;aspect=fixed;rounded=0;fontSize=8;" parent="s0Bn349LhkQGqxj4xGBl-156" vertex="1">
          <mxGeometry x="482.5" y="124" width="20" height="20" as="geometry" />
        </mxCell>
        <mxCell id="Qd9eh4tPJ-e6mK_Yuv8Q-19" value="" style="ellipse;whiteSpace=wrap;html=1;aspect=fixed;rounded=0;fontSize=8;" parent="s0Bn349LhkQGqxj4xGBl-156" vertex="1">
          <mxGeometry x="532.5" y="74" width="20" height="20" as="geometry" />
        </mxCell>
        <mxCell id="s0Bn349LhkQGqxj4xGBl-161" value="&lt;font style=&quot;font-size: 9px;&quot;&gt;&amp;lt;&amp;lt;ActivationExpression&amp;gt;&amp;gt;&lt;br&gt;role == &quot;OWNER&quot;&lt;/font&gt;" style="shape=note;size=20;whiteSpace=wrap;html=1;rounded=0;fontSize=8;align=left;" parent="s0Bn349LhkQGqxj4xGBl-148" vertex="1">
          <mxGeometry x="30" y="630" width="120" height="40" as="geometry" />
        </mxCell>
        <mxCell id="s0Bn349LhkQGqxj4xGBl-162" value="" style="endArrow=none;dashed=1;html=1;rounded=0;fontSize=8;exitX=0;exitY=0;exitDx=50;exitDy=0;exitPerimeter=0;" parent="s0Bn349LhkQGqxj4xGBl-148" source="s0Bn349LhkQGqxj4xGBl-161" edge="1">
          <mxGeometry width="50" height="50" relative="1" as="geometry">
            <mxPoint x="-60" y="530" as="sourcePoint" />
            <mxPoint x="80" y="604" as="targetPoint" />
          </mxGeometry>
        </mxCell>
        <mxCell id="s0Bn349LhkQGqxj4xGBl-164" value="" style="endArrow=classic;html=1;rounded=0;exitX=1;exitY=0.5;exitDx=0;exitDy=0;" parent="s0Bn349LhkQGqxj4xGBl-148" source="Qd9eh4tPJ-e6mK_Yuv8Q-32" edge="1">
          <mxGeometry width="50" height="50" relative="1" as="geometry">
            <mxPoint y="104" as="sourcePoint" />
            <mxPoint x="150" y="104" as="targetPoint" />
          </mxGeometry>
        </mxCell>
        <mxCell id="tFA0DNux-SHyUiWXGhg9-9" value="" style="endArrow=none;dashed=1;html=1;rounded=0;fontSize=8;exitX=0;exitY=0;exitDx=50;exitDy=0;exitPerimeter=0;" parent="s0Bn349LhkQGqxj4xGBl-148" source="s0Bn349LhkQGqxj4xGBl-149" edge="1">
          <mxGeometry width="50" height="50" relative="1" as="geometry">
            <mxPoint x="70" y="170" as="sourcePoint" />
            <mxPoint x="70" y="110" as="targetPoint" />
          </mxGeometry>
        </mxCell>
        <mxCell id="Qd9eh4tPJ-e6mK_Yuv8Q-32" value="" style="ellipse;whiteSpace=wrap;html=1;aspect=fixed;fillStyle=solid;fillColor=#000000;" parent="s0Bn349LhkQGqxj4xGBl-148" vertex="1">
          <mxGeometry x="-10" y="94" width="20" height="20" as="geometry" />
        </mxCell>
        <mxCell id="Qd9eh4tPJ-e6mK_Yuv8Q-33" value="" style="ellipse;whiteSpace=wrap;html=1;aspect=fixed;fillStyle=solid;fillColor=#000000;" parent="s0Bn349LhkQGqxj4xGBl-148" vertex="1">
          <mxGeometry x="-10" y="590" width="20" height="20" as="geometry" />
        </mxCell>
        <mxCell id="Qd9eh4tPJ-e6mK_Yuv8Q-17" value="" style="endArrow=classic;html=1;rounded=0;exitX=1;exitY=0.5;exitDx=0;exitDy=0;" parent="s0Bn349LhkQGqxj4xGBl-148" source="Qd9eh4tPJ-e6mK_Yuv8Q-33" target="s0Bn349LhkQGqxj4xGBl-156" edge="1">
          <mxGeometry width="50" height="50" relative="1" as="geometry">
            <mxPoint y="550" as="sourcePoint" />
            <mxPoint x="180" y="549" as="targetPoint" />
          </mxGeometry>
        </mxCell>
        <mxCell id="s0Bn349LhkQGqxj4xGBl-168" value="[XOR] Bookings List" style="swimlane;whiteSpace=wrap;html=1;fillColor=#FFFFFF;gradientColor=#FFFFFF;gradientDirection=south;align=left;rounded=0;" parent="1" vertex="1">
          <mxGeometry x="165" y="1274" width="460" height="414.75" as="geometry" />
        </mxCell>
        <mxCell id="s0Bn349LhkQGqxj4xGBl-169" value="Client Bookings List" style="swimlane;whiteSpace=wrap;html=1;fillColor=#FFFFFF;gradientColor=#FFFFFF;gradientDirection=south;align=left;rounded=0;" parent="s0Bn349LhkQGqxj4xGBl-168" vertex="1">
          <mxGeometry x="220" y="48.5" width="190" height="141.5" as="geometry" />
        </mxCell>
        <mxCell id="s0Bn349LhkQGqxj4xGBl-170" value="&amp;lt;&amp;lt;List&amp;gt;&amp;gt;&lt;br&gt;&lt;br&gt;Booking List" style="rounded=1;whiteSpace=wrap;html=1;fontSize=12;" parent="s0Bn349LhkQGqxj4xGBl-169" vertex="1">
          <mxGeometry x="40" y="33.25" width="110" height="75" as="geometry" />
        </mxCell>
        <mxCell id="s0Bn349LhkQGqxj4xGBl-171" value="" style="ellipse;whiteSpace=wrap;html=1;aspect=fixed;rounded=0;fontSize=8;" parent="s0Bn349LhkQGqxj4xGBl-169" vertex="1">
          <mxGeometry x="140" y="60.75" width="20" height="20" as="geometry" />
        </mxCell>
        <mxCell id="s0Bn349LhkQGqxj4xGBl-172" value="Owner Bookings List" style="swimlane;whiteSpace=wrap;html=1;fillColor=#FFFFFF;gradientColor=#FFFFFF;gradientDirection=south;align=left;rounded=0;" parent="s0Bn349LhkQGqxj4xGBl-168" vertex="1">
          <mxGeometry x="210" y="218.5" width="200" height="141.5" as="geometry" />
        </mxCell>
        <mxCell id="s0Bn349LhkQGqxj4xGBl-173" value="&amp;lt;&amp;lt;List&amp;gt;&amp;gt;&lt;br&gt;Booking List" style="rounded=1;whiteSpace=wrap;html=1;fontSize=12;" parent="s0Bn349LhkQGqxj4xGBl-172" vertex="1">
          <mxGeometry x="40" y="40" width="110" height="75" as="geometry" />
        </mxCell>
        <mxCell id="s0Bn349LhkQGqxj4xGBl-174" value="" style="ellipse;whiteSpace=wrap;html=1;aspect=fixed;rounded=0;fontSize=8;" parent="s0Bn349LhkQGqxj4xGBl-172" vertex="1">
          <mxGeometry x="145" y="60.75" width="20" height="20" as="geometry" />
        </mxCell>
        <mxCell id="s0Bn349LhkQGqxj4xGBl-175" value="&lt;font style=&quot;font-size: 9px;&quot;&gt;&amp;lt;&amp;lt;ActivationExpression&amp;gt;&amp;gt;&lt;br&gt;role == &quot;CLIENT&quot;&lt;/font&gt;" style="shape=note;size=20;whiteSpace=wrap;html=1;rounded=0;fontSize=8;align=left;" parent="s0Bn349LhkQGqxj4xGBl-168" vertex="1">
          <mxGeometry x="20" y="154" width="120" height="40" as="geometry" />
        </mxCell>
        <mxCell id="s0Bn349LhkQGqxj4xGBl-176" value="&lt;font style=&quot;font-size: 9px;&quot;&gt;&amp;lt;&amp;lt;ActivationExpression&amp;gt;&amp;gt;&lt;br&gt;role == &quot;OWNER&quot;&lt;/font&gt;" style="shape=note;size=20;whiteSpace=wrap;html=1;rounded=0;fontSize=8;align=left;" parent="s0Bn349LhkQGqxj4xGBl-168" vertex="1">
          <mxGeometry x="40" y="330" width="120" height="40" as="geometry" />
        </mxCell>
        <mxCell id="s0Bn349LhkQGqxj4xGBl-177" value="" style="endArrow=classic;html=1;rounded=0;exitX=1;exitY=0.5;exitDx=0;exitDy=0;entryX=0;entryY=0.5;entryDx=0;entryDy=0;" parent="s0Bn349LhkQGqxj4xGBl-168" source="s0Bn349LhkQGqxj4xGBl-178" target="s0Bn349LhkQGqxj4xGBl-169" edge="1">
          <mxGeometry width="50" height="50" relative="1" as="geometry">
            <mxPoint x="40" y="119.25" as="sourcePoint" />
            <mxPoint x="790" y="314.75" as="targetPoint" />
          </mxGeometry>
        </mxCell>
        <mxCell id="s0Bn349LhkQGqxj4xGBl-178" value="" style="ellipse;whiteSpace=wrap;html=1;aspect=fixed;fillColor=#000000;rounded=0;" parent="s0Bn349LhkQGqxj4xGBl-168" vertex="1">
          <mxGeometry y="114.25" width="10" height="10" as="geometry" />
        </mxCell>
        <mxCell id="tFA0DNux-SHyUiWXGhg9-1" value="" style="endArrow=classic;html=1;rounded=0;entryX=0;entryY=0.5;entryDx=0;entryDy=0;" parent="s0Bn349LhkQGqxj4xGBl-168" source="tFA0DNux-SHyUiWXGhg9-4" target="s0Bn349LhkQGqxj4xGBl-172" edge="1">
          <mxGeometry width="50" height="50" relative="1" as="geometry">
            <mxPoint y="290" as="sourcePoint" />
            <mxPoint x="205" y="300" as="targetPoint" />
          </mxGeometry>
        </mxCell>
        <mxCell id="tFA0DNux-SHyUiWXGhg9-4" value="" style="ellipse;whiteSpace=wrap;html=1;aspect=fixed;fillColor=#000000;rounded=0;" parent="s0Bn349LhkQGqxj4xGBl-168" vertex="1">
          <mxGeometry y="284.25" width="10" height="10" as="geometry" />
        </mxCell>
        <mxCell id="tFA0DNux-SHyUiWXGhg9-7" value="" style="endArrow=none;dashed=1;html=1;rounded=0;fontSize=8;exitX=0.5;exitY=0;exitDx=0;exitDy=0;exitPerimeter=0;" parent="s0Bn349LhkQGqxj4xGBl-168" source="s0Bn349LhkQGqxj4xGBl-176" edge="1">
          <mxGeometry width="50" height="50" relative="1" as="geometry">
            <mxPoint x="120" y="390" as="sourcePoint" />
            <mxPoint x="100" y="290" as="targetPoint" />
          </mxGeometry>
        </mxCell>
        <mxCell id="tFA0DNux-SHyUiWXGhg9-8" value="" style="endArrow=none;dashed=1;html=1;rounded=0;fontSize=8;exitX=0.663;exitY=0.008;exitDx=0;exitDy=0;exitPerimeter=0;" parent="s0Bn349LhkQGqxj4xGBl-168" source="s0Bn349LhkQGqxj4xGBl-175" edge="1">
          <mxGeometry width="50" height="50" relative="1" as="geometry">
            <mxPoint x="120" y="250" as="sourcePoint" />
            <mxPoint x="100" y="120" as="targetPoint" />
          </mxGeometry>
        </mxCell>
        <mxCell id="s0Bn349LhkQGqxj4xGBl-179" value="" style="endArrow=none;dashed=1;html=1;rounded=0;fontSize=8;exitX=0.5;exitY=0;exitDx=0;exitDy=0;" parent="1" source="s0Bn349LhkQGqxj4xGBl-180" edge="1">
          <mxGeometry width="50" height="50" relative="1" as="geometry">
            <mxPoint x="729" y="1130" as="sourcePoint" />
            <mxPoint x="790" y="869.75" as="targetPoint" />
          </mxGeometry>
        </mxCell>
        <mxCell id="s0Bn349LhkQGqxj4xGBl-180" value="&lt;font style=&quot;font-size: 9px;&quot;&gt;&amp;lt;&amp;lt;ParamBindingGroup&amp;gt;&amp;gt;&lt;br&gt;SelectedApartment -&amp;gt; Apartment&lt;br&gt;&lt;/font&gt;" style="shape=parallelogram;perimeter=parallelogramPerimeter;whiteSpace=wrap;html=1;fixedSize=1;rounded=0;fontSize=12;" parent="1" vertex="1">
          <mxGeometry x="705" y="980" width="172" height="45" as="geometry" />
        </mxCell>
        <mxCell id="tFA0DNux-SHyUiWXGhg9-2" value="" style="endArrow=classic;html=1;rounded=0;exitX=1;exitY=0.5;exitDx=0;exitDy=0;" parent="1" source="s0Bn349LhkQGqxj4xGBl-171" edge="1">
          <mxGeometry width="50" height="50" relative="1" as="geometry">
            <mxPoint x="575" y="1434.75" as="sourcePoint" />
            <mxPoint x="955" y="1394" as="targetPoint" />
          </mxGeometry>
        </mxCell>
        <mxCell id="Qd9eh4tPJ-e6mK_Yuv8Q-12" value="&lt;font style=&quot;font-size: 14px;&quot;&gt;See Details&lt;br&gt;&lt;/font&gt;" style="edgeLabel;html=1;align=center;verticalAlign=middle;resizable=0;points=[];" parent="tFA0DNux-SHyUiWXGhg9-2" vertex="1" connectable="0">
          <mxGeometry x="-0.3579" y="-1" relative="1" as="geometry">
            <mxPoint x="3" y="-17" as="offset" />
          </mxGeometry>
        </mxCell>
        <mxCell id="tFA0DNux-SHyUiWXGhg9-3" value="" style="endArrow=classic;html=1;rounded=0;exitX=1;exitY=0.5;exitDx=0;exitDy=0;" parent="1" source="s0Bn349LhkQGqxj4xGBl-174" edge="1">
          <mxGeometry width="50" height="50" relative="1" as="geometry">
            <mxPoint x="565" y="1403" as="sourcePoint" />
            <mxPoint x="955" y="1564" as="targetPoint" />
          </mxGeometry>
        </mxCell>
        <mxCell id="Qd9eh4tPJ-e6mK_Yuv8Q-13" value="&lt;font style=&quot;font-size: 14px;&quot;&gt;See Details&lt;br&gt;&lt;/font&gt;" style="edgeLabel;html=1;align=center;verticalAlign=middle;resizable=0;points=[];" parent="tFA0DNux-SHyUiWXGhg9-3" vertex="1" connectable="0">
          <mxGeometry x="-0.3174" relative="1" as="geometry">
            <mxPoint y="-10" as="offset" />
          </mxGeometry>
        </mxCell>
        <mxCell id="tFA0DNux-SHyUiWXGhg9-13" value="&lt;div style=&quot;font-size: 9px;&quot;&gt;&lt;font style=&quot;font-size: 11px;&quot;&gt;Cancel Booking&lt;/font&gt;&lt;/div&gt;" style="shape=hexagon;perimeter=hexagonPerimeter2;whiteSpace=wrap;html=1;fixedSize=1;rounded=0;fontSize=8;" parent="1" vertex="1">
          <mxGeometry x="1960" y="1332.5" width="100" height="70" as="geometry" />
        </mxCell>
        <mxCell id="tFA0DNux-SHyUiWXGhg9-15" value="" style="endArrow=classic;html=1;rounded=0;fontSize=8;exitX=1;exitY=0.5;exitDx=0;exitDy=0;entryX=0;entryY=0.5;entryDx=0;entryDy=0;" parent="1" source="tFA0DNux-SHyUiWXGhg9-14" target="tFA0DNux-SHyUiWXGhg9-13" edge="1">
          <mxGeometry width="50" height="50" relative="1" as="geometry">
            <mxPoint x="1285" y="1354" as="sourcePoint" />
            <mxPoint x="1775" y="1364" as="targetPoint" />
          </mxGeometry>
        </mxCell>
        <mxCell id="tFA0DNux-SHyUiWXGhg9-16" value="&lt;div style=&quot;font-size: 12px;&quot;&gt;&lt;font style=&quot;font-size: 14px;&quot;&gt;Cancel Booking&lt;/font&gt;&lt;/div&gt;" style="edgeLabel;html=1;align=center;verticalAlign=middle;resizable=0;points=[];" parent="tFA0DNux-SHyUiWXGhg9-15" vertex="1" connectable="0">
          <mxGeometry x="-0.5779" y="1" relative="1" as="geometry">
            <mxPoint x="53" y="-10" as="offset" />
          </mxGeometry>
        </mxCell>
        <mxCell id="tFA0DNux-SHyUiWXGhg9-17" value="" style="ellipse;whiteSpace=wrap;html=1;aspect=fixed;rounded=0;fontSize=8;" parent="1" vertex="1">
          <mxGeometry x="2060" y="1357.5" width="20" height="20" as="geometry" />
        </mxCell>
        <mxCell id="tFA0DNux-SHyUiWXGhg9-11" value="Confirmation" style="swimlane;whiteSpace=wrap;html=1;fillColor=#FFFFFF;gradientColor=#FFFFFF;gradientDirection=south;align=left;rounded=0;" parent="1" vertex="1">
          <mxGeometry x="2145" y="1304" width="150" height="172.5" as="geometry" />
        </mxCell>
        <mxCell id="tFA0DNux-SHyUiWXGhg9-19" value="&amp;lt;&amp;lt;Details&amp;gt;&amp;gt;&lt;br&gt;Confirmation Message" style="rounded=1;whiteSpace=wrap;html=1;fontSize=12;" parent="tFA0DNux-SHyUiWXGhg9-11" vertex="1">
          <mxGeometry x="23" y="46.25" width="105" height="80" as="geometry" />
        </mxCell>
        <mxCell id="tFA0DNux-SHyUiWXGhg9-30" value="" style="ellipse;whiteSpace=wrap;html=1;aspect=fixed;rounded=0;fontSize=8;" parent="tFA0DNux-SHyUiWXGhg9-11" vertex="1">
          <mxGeometry x="-10" y="140" width="20" height="20" as="geometry" />
        </mxCell>
        <mxCell id="tFA0DNux-SHyUiWXGhg9-23" value="&lt;div style=&quot;font-size: 10px;&quot;&gt;&lt;font style=&quot;font-size: 10px;&quot;&gt;Check In / Check Out&lt;/font&gt;&lt;/div&gt;&lt;div style=&quot;font-size: 10px;&quot;&gt;&lt;font style=&quot;font-size: 10px;&quot;&gt;Booking&lt;font style=&quot;font-size: 10px;&quot;&gt;&lt;br&gt;&lt;/font&gt;&lt;/font&gt;&lt;/div&gt;" style="shape=hexagon;perimeter=hexagonPerimeter2;whiteSpace=wrap;html=1;fixedSize=1;rounded=0;fontSize=8;" parent="1" vertex="1">
          <mxGeometry x="1947.5" y="1519" width="112.5" height="70" as="geometry" />
        </mxCell>
        <mxCell id="tFA0DNux-SHyUiWXGhg9-26" value="" style="endArrow=classic;html=1;rounded=0;exitX=1;exitY=0.5;exitDx=0;exitDy=0;" parent="1" source="tFA0DNux-SHyUiWXGhg9-17" edge="1">
          <mxGeometry width="50" height="50" relative="1" as="geometry">
            <mxPoint x="2080" y="1362" as="sourcePoint" />
            <mxPoint x="2145" y="1368" as="targetPoint" />
          </mxGeometry>
        </mxCell>
        <mxCell id="tFA0DNux-SHyUiWXGhg9-32" value="" style="endArrow=classic;html=1;rounded=0;exitX=0;exitY=0.5;exitDx=0;exitDy=0;" parent="1" source="tFA0DNux-SHyUiWXGhg9-30" edge="1">
          <mxGeometry width="50" height="50" relative="1" as="geometry">
            <mxPoint x="1990" y="1444.18" as="sourcePoint" />
            <mxPoint x="630" y="1510" as="targetPoint" />
            <Array as="points">
              <mxPoint x="1840" y="1454" />
              <mxPoint x="1840" y="1510" />
            </Array>
          </mxGeometry>
        </mxCell>
        <mxCell id="Qd9eh4tPJ-e6mK_Yuv8Q-6" value="" style="endArrow=classic;html=1;rounded=0;fontSize=8;entryX=0;entryY=0.5;entryDx=0;entryDy=0;exitX=0.5;exitY=1;exitDx=0;exitDy=0;" parent="1" source="Qd9eh4tPJ-e6mK_Yuv8Q-5" target="tFA0DNux-SHyUiWXGhg9-23" edge="1">
          <mxGeometry width="50" height="50" relative="1" as="geometry">
            <mxPoint x="1585" y="1434" as="sourcePoint" />
            <mxPoint x="1815" y="1554" as="targetPoint" />
            <Array as="points">
              <mxPoint x="1625" y="1554" />
            </Array>
          </mxGeometry>
        </mxCell>
        <mxCell id="Qd9eh4tPJ-e6mK_Yuv8Q-7" value="&lt;font style=&quot;font-size: 13px;&quot;&gt;CheckIn/CheckOut Booking&lt;/font&gt;" style="edgeLabel;html=1;align=center;verticalAlign=middle;resizable=0;points=[];" parent="Qd9eh4tPJ-e6mK_Yuv8Q-6" vertex="1" connectable="0">
          <mxGeometry x="-0.5779" y="1" relative="1" as="geometry">
            <mxPoint x="89" y="33" as="offset" />
          </mxGeometry>
        </mxCell>
        <mxCell id="Qd9eh4tPJ-e6mK_Yuv8Q-8" value="" style="ellipse;whiteSpace=wrap;html=1;aspect=fixed;rounded=0;fontSize=8;" parent="1" vertex="1">
          <mxGeometry x="2060" y="1544" width="20" height="20" as="geometry" />
        </mxCell>
        <mxCell id="Qd9eh4tPJ-e6mK_Yuv8Q-15" value="&lt;font style=&quot;font-size: 9px;&quot;&gt;&amp;lt;&amp;lt;ParamBindingGroup&amp;gt;&amp;gt;&lt;br&gt;SelectedBooking -&amp;gt; Booking&lt;br&gt;&lt;/font&gt;" style="shape=parallelogram;perimeter=parallelogramPerimeter;whiteSpace=wrap;html=1;fixedSize=1;rounded=0;fontSize=12;" parent="1" vertex="1">
          <mxGeometry x="705" y="1229" width="172" height="45" as="geometry" />
        </mxCell>
        <mxCell id="Qd9eh4tPJ-e6mK_Yuv8Q-16" value="&lt;font style=&quot;font-size: 9px;&quot;&gt;&amp;lt;&amp;lt;ParamBindingGroup&amp;gt;&amp;gt;&lt;br&gt;SelectedBooking -&amp;gt; Booking&lt;br&gt;&lt;/font&gt;" style="shape=parallelogram;perimeter=parallelogramPerimeter;whiteSpace=wrap;html=1;fixedSize=1;rounded=0;fontSize=12;" parent="1" vertex="1">
          <mxGeometry x="680" y="1704" width="172" height="45" as="geometry" />
        </mxCell>
        <mxCell id="Qd9eh4tPJ-e6mK_Yuv8Q-20" value="" style="endArrow=classic;html=1;rounded=0;fontSize=8;exitX=1;exitY=0.5;exitDx=0;exitDy=0;entryX=0;entryY=0.5;entryDx=0;entryDy=0;" parent="1" source="Qd9eh4tPJ-e6mK_Yuv8Q-19" target="Qd9eh4tPJ-e6mK_Yuv8Q-22" edge="1">
          <mxGeometry width="50" height="50" relative="1" as="geometry">
            <mxPoint x="1285" y="1378" as="sourcePoint" />
            <mxPoint x="1755" y="1804" as="targetPoint" />
          </mxGeometry>
        </mxCell>
        <mxCell id="Qd9eh4tPJ-e6mK_Yuv8Q-21" value="Accept Booking" style="edgeLabel;html=1;align=center;verticalAlign=middle;resizable=0;points=[];" parent="Qd9eh4tPJ-e6mK_Yuv8Q-20" vertex="1" connectable="0">
          <mxGeometry x="-0.5779" y="1" relative="1" as="geometry">
            <mxPoint x="53" y="-10" as="offset" />
          </mxGeometry>
        </mxCell>
        <mxCell id="Qd9eh4tPJ-e6mK_Yuv8Q-22" value="&lt;div style=&quot;font-size: 12px;&quot;&gt;&lt;font style=&quot;font-size: 12px;&quot;&gt;Accept&lt;/font&gt;&lt;/div&gt;&lt;div style=&quot;font-size: 12px;&quot;&gt;&lt;font style=&quot;font-size: 12px;&quot;&gt;Booking&lt;font style=&quot;font-size: 12px;&quot;&gt;&lt;br&gt;&lt;/font&gt;&lt;/font&gt;&lt;/div&gt;" style="shape=hexagon;perimeter=hexagonPerimeter2;whiteSpace=wrap;html=1;fixedSize=1;rounded=0;fontSize=8;" parent="1" vertex="1">
          <mxGeometry x="1885" y="1769" width="100" height="70" as="geometry" />
        </mxCell>
        <mxCell id="Qd9eh4tPJ-e6mK_Yuv8Q-23" value="" style="ellipse;whiteSpace=wrap;html=1;aspect=fixed;rounded=0;fontSize=8;" parent="1" vertex="1">
          <mxGeometry x="1985" y="1794" width="20" height="20" as="geometry" />
        </mxCell>
        <mxCell id="Qd9eh4tPJ-e6mK_Yuv8Q-24" value="" style="endArrow=classic;html=1;rounded=0;fontSize=8;exitX=0;exitY=0.5;exitDx=0;exitDy=0;" parent="1" source="Qd9eh4tPJ-e6mK_Yuv8Q-28" edge="1">
          <mxGeometry width="50" height="50" relative="1" as="geometry">
            <mxPoint x="1286" y="1814" as="sourcePoint" />
            <mxPoint x="1745" y="1868" as="targetPoint" />
            <Array as="points" />
          </mxGeometry>
        </mxCell>
        <mxCell id="Qd9eh4tPJ-e6mK_Yuv8Q-26" value="Confirmation" style="swimlane;whiteSpace=wrap;html=1;fillColor=#FFFFFF;gradientColor=#FFFFFF;gradientDirection=south;align=left;rounded=0;" parent="1" vertex="1">
          <mxGeometry x="2070" y="1717.75" width="180" height="172.5" as="geometry" />
        </mxCell>
        <mxCell id="Qd9eh4tPJ-e6mK_Yuv8Q-27" value="&amp;lt;&amp;lt;Details&amp;gt;&amp;gt;&lt;br&gt;Confirmation Message" style="rounded=1;whiteSpace=wrap;html=1;fontSize=12;" parent="Qd9eh4tPJ-e6mK_Yuv8Q-26" vertex="1">
          <mxGeometry x="37.5" y="46.25" width="105" height="80" as="geometry" />
        </mxCell>
        <mxCell id="Qd9eh4tPJ-e6mK_Yuv8Q-28" value="" style="ellipse;whiteSpace=wrap;html=1;aspect=fixed;rounded=0;fontSize=8;" parent="Qd9eh4tPJ-e6mK_Yuv8Q-26" vertex="1">
          <mxGeometry x="-10" y="140" width="20" height="20" as="geometry" />
        </mxCell>
        <mxCell id="Qd9eh4tPJ-e6mK_Yuv8Q-29" value="" style="endArrow=classic;html=1;rounded=0;exitX=1;exitY=0.5;exitDx=0;exitDy=0;entryX=0;entryY=0.5;entryDx=0;entryDy=0;" parent="1" source="Qd9eh4tPJ-e6mK_Yuv8Q-23" target="Qd9eh4tPJ-e6mK_Yuv8Q-26" edge="1">
          <mxGeometry width="50" height="50" relative="1" as="geometry">
            <mxPoint x="1915" y="1794" as="sourcePoint" />
            <mxPoint x="2075" y="1804" as="targetPoint" />
          </mxGeometry>
        </mxCell>
        <mxCell id="Qd9eh4tPJ-e6mK_Yuv8Q-30" value="" style="endArrow=none;dashed=1;html=1;rounded=0;fontSize=8;entryX=0.5;entryY=1;entryDx=0;entryDy=0;" parent="1" target="Qd9eh4tPJ-e6mK_Yuv8Q-15" edge="1">
          <mxGeometry width="50" height="50" relative="1" as="geometry">
            <mxPoint x="791" y="1394" as="sourcePoint" />
            <mxPoint x="795" y="1286.5" as="targetPoint" />
          </mxGeometry>
        </mxCell>
        <mxCell id="Qd9eh4tPJ-e6mK_Yuv8Q-31" value="" style="endArrow=none;dashed=1;html=1;rounded=0;fontSize=8;exitX=0.5;exitY=0;exitDx=0;exitDy=0;" parent="1" source="Qd9eh4tPJ-e6mK_Yuv8Q-16" edge="1">
          <mxGeometry width="50" height="50" relative="1" as="geometry">
            <mxPoint x="791.33" y="1717.75" as="sourcePoint" />
            <mxPoint x="765" y="1564" as="targetPoint" />
          </mxGeometry>
        </mxCell>
        <mxCell id="jyt33oUXzpSbrjprYRM3-1" value="Confirmation" style="swimlane;whiteSpace=wrap;html=1;fillColor=#FFFFFF;gradientColor=#FFFFFF;gradientDirection=south;align=left;rounded=0;" parent="1" vertex="1">
          <mxGeometry x="2135" y="1514" width="150" height="172.5" as="geometry" />
        </mxCell>
        <mxCell id="jyt33oUXzpSbrjprYRM3-2" value="&amp;lt;&amp;lt;Details&amp;gt;&amp;gt;&lt;br&gt;Confirmation Message" style="rounded=1;whiteSpace=wrap;html=1;fontSize=12;" parent="jyt33oUXzpSbrjprYRM3-1" vertex="1">
          <mxGeometry x="23" y="46.25" width="105" height="80" as="geometry" />
        </mxCell>
        <mxCell id="jyt33oUXzpSbrjprYRM3-3" value="" style="ellipse;whiteSpace=wrap;html=1;aspect=fixed;rounded=0;fontSize=8;" parent="jyt33oUXzpSbrjprYRM3-1" vertex="1">
          <mxGeometry x="-10" y="140" width="20" height="20" as="geometry" />
        </mxCell>
        <mxCell id="jyt33oUXzpSbrjprYRM3-4" value="" style="endArrow=classic;html=1;rounded=0;exitX=1;exitY=0.5;exitDx=0;exitDy=0;" parent="jyt33oUXzpSbrjprYRM3-1" source="Qd9eh4tPJ-e6mK_Yuv8Q-8" edge="1">
          <mxGeometry width="50" height="50" relative="1" as="geometry">
            <mxPoint x="-10" y="40" as="sourcePoint" />
            <mxPoint y="40" as="targetPoint" />
          </mxGeometry>
        </mxCell>
        <mxCell id="jyt33oUXzpSbrjprYRM3-5" value="" style="endArrow=classic;html=1;rounded=0;exitX=0;exitY=0.5;exitDx=0;exitDy=0;" parent="1" source="jyt33oUXzpSbrjprYRM3-3" edge="1">
          <mxGeometry width="50" height="50" relative="1" as="geometry">
            <mxPoint x="1985" y="1654" as="sourcePoint" />
            <mxPoint x="630" y="1650" as="targetPoint" />
            <Array as="points">
              <mxPoint x="1155" y="1664" />
              <mxPoint x="1155" y="1650" />
            </Array>
          </mxGeometry>
        </mxCell>
        <mxCell id="jyt33oUXzpSbrjprYRM3-6" value="&lt;div style=&quot;font-size: 12px;&quot;&gt;&lt;font style=&quot;font-size: 12px;&quot;&gt;Reject&lt;/font&gt;&lt;/div&gt;&lt;div style=&quot;font-size: 12px;&quot;&gt;&lt;font style=&quot;font-size: 12px;&quot;&gt;Booking&lt;font style=&quot;font-size: 12px;&quot;&gt;&lt;br&gt;&lt;/font&gt;&lt;/font&gt;&lt;/div&gt;" style="shape=hexagon;perimeter=hexagonPerimeter2;whiteSpace=wrap;html=1;fixedSize=1;rounded=0;fontSize=8;" parent="1" vertex="1">
          <mxGeometry x="1895" y="2005.25" width="100" height="70" as="geometry" />
        </mxCell>
        <mxCell id="jyt33oUXzpSbrjprYRM3-7" value="" style="ellipse;whiteSpace=wrap;html=1;aspect=fixed;rounded=0;fontSize=8;" parent="1" vertex="1">
          <mxGeometry x="1995" y="2030.25" width="20" height="20" as="geometry" />
        </mxCell>
        <mxCell id="jyt33oUXzpSbrjprYRM3-8" value="Confirmation" style="swimlane;whiteSpace=wrap;html=1;fillColor=#FFFFFF;gradientColor=#FFFFFF;gradientDirection=south;align=left;rounded=0;" parent="1" vertex="1">
          <mxGeometry x="2080" y="1954" width="180" height="172.5" as="geometry" />
        </mxCell>
        <mxCell id="jyt33oUXzpSbrjprYRM3-9" value="&amp;lt;&amp;lt;Details&amp;gt;&amp;gt;&lt;br&gt;Confirmation Message" style="rounded=1;whiteSpace=wrap;html=1;fontSize=12;" parent="jyt33oUXzpSbrjprYRM3-8" vertex="1">
          <mxGeometry x="37.5" y="46.25" width="105" height="80" as="geometry" />
        </mxCell>
        <mxCell id="jyt33oUXzpSbrjprYRM3-10" value="" style="ellipse;whiteSpace=wrap;html=1;aspect=fixed;rounded=0;fontSize=8;" parent="jyt33oUXzpSbrjprYRM3-8" vertex="1">
          <mxGeometry x="-10" y="140" width="20" height="20" as="geometry" />
        </mxCell>
        <mxCell id="jyt33oUXzpSbrjprYRM3-11" value="" style="endArrow=classic;html=1;rounded=0;exitX=1;exitY=0.5;exitDx=0;exitDy=0;entryX=0;entryY=0.5;entryDx=0;entryDy=0;" parent="1" source="jyt33oUXzpSbrjprYRM3-7" target="jyt33oUXzpSbrjprYRM3-8" edge="1">
          <mxGeometry width="50" height="50" relative="1" as="geometry">
            <mxPoint x="1925" y="2030.25" as="sourcePoint" />
            <mxPoint x="2085" y="2040.25" as="targetPoint" />
          </mxGeometry>
        </mxCell>
        <mxCell id="jyt33oUXzpSbrjprYRM3-12" value="" style="endArrow=classic;html=1;rounded=0;fontSize=8;entryX=0;entryY=0.5;entryDx=0;entryDy=0;exitX=0.5;exitY=1;exitDx=0;exitDy=0;" parent="1" source="jyt33oUXzpSbrjprYRM3-14" target="jyt33oUXzpSbrjprYRM3-6" edge="1">
          <mxGeometry width="50" height="50" relative="1" as="geometry">
            <mxPoint x="1275" y="2024" as="sourcePoint" />
            <mxPoint x="1735" y="2050.25" as="targetPoint" />
            <Array as="points">
              <mxPoint x="1625" y="2040" />
            </Array>
          </mxGeometry>
        </mxCell>
        <mxCell id="jyt33oUXzpSbrjprYRM3-13" value="Reject Booking" style="edgeLabel;html=1;align=center;verticalAlign=middle;resizable=0;points=[];" parent="jyt33oUXzpSbrjprYRM3-12" vertex="1" connectable="0">
          <mxGeometry x="-0.5779" y="1" relative="1" as="geometry">
            <mxPoint x="53" y="-10" as="offset" />
          </mxGeometry>
        </mxCell>
        <mxCell id="jyt33oUXzpSbrjprYRM3-16" value="" style="endArrow=classic;html=1;rounded=0;fontSize=8;exitX=0;exitY=0.5;exitDx=0;exitDy=0;entryX=0.25;entryY=1;entryDx=0;entryDy=0;" parent="1" source="jyt33oUXzpSbrjprYRM3-10" target="s0Bn349LhkQGqxj4xGBl-156" edge="1">
          <mxGeometry width="50" height="50" relative="1" as="geometry">
            <mxPoint x="1910" y="2104" as="sourcePoint" />
            <mxPoint x="1295" y="2104" as="targetPoint" />
            <Array as="points">
              <mxPoint x="1286" y="2104" />
            </Array>
          </mxGeometry>
        </mxCell>
        <mxCell id="s0Bn349LhkQGqxj4xGBl-27" value="" style="ellipse;whiteSpace=wrap;html=1;aspect=fixed;rounded=0;fontSize=8;" parent="1" vertex="1">
          <mxGeometry x="400" y="340" width="20" height="20" as="geometry" />
        </mxCell>
      </root>
    </mxGraphModel>
  </diagram>
</mxfile>
